# xmcd
#
# Track frame offsets:
#	180
#	14062
#	26931
#	38266
#	53906
#	68345
#	82811
#	93541
#	107605
#	121767
#	132366
#	144164
#	158904
#	172853
#	185999
#	195115
#	207424
#	218693
#
# Disc length: 3102 seconds
#
# Revision: 2
# Processed by: cddbd v1.5.2PL0 Copyright (c) Steve Scherf et al.
# Submitted via: audiograbber 1.83.01
#
DISCID=e90c1c12
DTITLE=Various Artist - Great Voices Of Entertainment -CD 06
DYEAR=1900
DGENRE=Swing
TTITLE0=Fred Astaire - The Rabbit And The Bromide
TTITLE1=Fred Astaire - Crazy Feet
TTITLE2=Judy Garland - Cry Baby Cry
TTITLE3=Frank Sinatra - Shake Down The Stars
TTITLE4=Frank Sinatra - People Will Say We're In Love
TTITLE5=Bing Crosby - The Birth Of The Blues
TTITLE6=Bing Crosby - I'll Capture Your Heart
TTITLE7=Judy Garland - Yah-Ta-Ta (Talk, Talk, Talk)
TTITLE8=Doris Day - Sentimental Journey
TTITLE9=Four Knights - Gospel Train
TTITLE10=Mel Tormé - Born To Be Blue
TTITLE11=Perry Como - Sonata
TTITLE12=Doris Day - (Oh Yes) There's Good Blues Tonight
TTITLE13=Mel Tormé - Gone With The Wind
TTITLE14=Four Knights - Choo Choo Ch'boogie
TTITLE15=Dean Martin - You Was
TTITLE16=Dean Martin - I'll Always Love You (Day After Day)
TTITLE17=Perry Como - I Confess
EXTD=CD 6 von 10
EXTT0=
EXTT1=
EXTT2=
EXTT3=
EXTT4=
EXTT5=
EXTT6=
EXTT7=
EXTT8=
EXTT9=
EXTT10=
EXTT11=
EXTT12=
EXTT13=
EXTT14=
EXTT15=
EXTT16=
EXTT17=
PLAYORDER=
